name Run_30002_GRF.mot
datacolumns 19
datarows 20
range 1.039 1.058
endheader

time	     ground_force_vx	     ground_force_vy	     ground_force_vz	     ground_force_px	     ground_force_py	     ground_force_pz	   l_ground_force_vx	   l_ground_force_vy	   l_ground_force_vz	   l_ground_force_px	   l_ground_force_py	   l_ground_force_pz	     ground_torque_x	     ground_torque_y	     ground_torque_z	   l_ground_torque_x	   l_ground_torque_y	   l_ground_torque_z	
1.039	          0.00000000	          0.00000000	          0.00000000	          0.00000000	          0.00000000	          0.00000000	         95.54965200	       1337.21667500	         -3.77450100	          0.87445100	          0.00000000	         -0.37195400	          0.00000000	          0.00000000	          0.00000000	         -0.00000000	          5.58787400	         -0.00000000	
1.04	          0.00000000	          0.00000000	          0.00000000	          0.00000000	          0.00000000	          0.00000000	         99.43678300	       1322.43762200	         -4.73185400	          0.87211300	          0.00000000	         -0.37185400	          0.00000000	          0.00000000	          0.00000000	         -0.00000000	          5.80260400	         -0.00000000	
1.041	          0.00000000	          0.00000000	          0.00000000	          0.00000000	          0.00000000	          0.00000000	        103.17518600	       1307.42968800	         -5.70666600	          0.86978600	          0.00000000	         -0.37175100	          0.00000000	          0.00000000	          0.00000000	         -0.00000000	          6.01621300	         -0.00000000	
1.042	          0.00000000	          0.00000000	          0.00000000	          0.00000000	          0.00000000	          0.00000000	        106.76365700	       1292.20446800	         -6.69607500	          0.86746800	          0.00000000	         -0.37164600	          0.00000000	          0.00000000	          0.00000000	         -0.00000000	          6.22819500	         -0.00000000	
1.043	          0.00000000	          0.00000000	          0.00000000	          0.00000000	          0.00000000	          0.00000000	        110.20219400	       1276.77478000	         -7.69708000	          0.86516200	          0.00000000	         -0.37153800	          0.00000000	          0.00000000	          0.00000000	         -0.00000000	          6.43804200	         -0.00000000	
1.044	          0.00000000	          0.00000000	          0.00000000	          0.00000000	          0.00000000	          0.00000000	        113.49189000	       1261.15429700	         -8.70654400	          0.86286600	          0.00000000	         -0.37142800	          0.00000000	          0.00000000	          0.00000000	         -0.00000000	          6.64524600	         -0.00000000	
1.045	          0.00000000	          0.00000000	          0.00000000	          0.00000000	          0.00000000	          0.00000000	        116.63472700	       1245.35754400	         -9.72120000	          0.86058000	          0.00000000	         -0.37131700	          0.00000000	          0.00000000	          0.00000000	         -0.00000000	          6.84929500	         -0.00000000	
1.046	          0.00000000	          0.00000000	          0.00000000	          0.00000000	          0.00000000	          0.00000000	        119.63340000	       1229.39892600	        -10.73765500	          0.85830400	          0.00000000	         -0.37120500	          0.00000000	          0.00000000	          0.00000000	         -0.00000000	          7.04968400	         -0.00000000	
1.047	          0.00000000	          0.00000000	          0.00000000	          0.00000000	          0.00000000	          0.00000000	        122.49113500	       1213.29357900	        -11.75240100	          0.85603700	          0.00000000	         -0.37109200	          0.00000000	          0.00000000	          0.00000000	         -0.00000000	          7.24590700	         -0.00000000	
1.048	          0.00000000	          0.00000000	          0.00000000	          0.00000000	          0.00000000	          0.00000000	        125.21151700	       1197.05590800	        -12.76182700	          0.85377900	          0.00000000	         -0.37097800	          0.00000000	          0.00000000	          0.00000000	         -0.00000000	          7.43746900	         -0.00000000	
1.049	          0.00000000	          0.00000000	          0.00000000	          0.00000000	          0.00000000	          0.00000000	        127.79827100	       1180.70019500	        -13.76223500	          0.85152900	          0.00000000	         -0.37086300	          0.00000000	          0.00000000	          0.00000000	         -0.00000000	          7.62387900	         -0.00000000	
1.05	          0.00000000	          0.00000000	          0.00000000	          0.00000000	          0.00000000	          0.00000000	        130.25509600	       1164.24035600	        -14.74985700	          0.84928600	          0.00000000	         -0.37074800	          0.00000000	          0.00000000	          0.00000000	         -0.00000000	          7.80465900	         -0.00000000	
1.051	          0.00000000	          0.00000000	          0.00000000	          0.00000000	          0.00000000	          0.00000000	        132.58552600	       1147.68920900	        -15.72087900	          0.84704900	          0.00000000	         -0.37063300	          0.00000000	          0.00000000	          0.00000000	         -0.00000000	          7.97934000	         -0.00000000	
1.052	          0.00000000	          0.00000000	          0.00000000	          0.00000000	          0.00000000	          0.00000000	        134.79275500	       1131.05944800	        -16.67146500	          0.84481800	          0.00000000	         -0.37051800	          0.00000000	          0.00000000	          0.00000000	         -0.00000000	          8.14746800	         -0.00000000	
1.053	          0.00000000	          0.00000000	          0.00000000	          0.00000000	          0.00000000	          0.00000000	        136.87953200	       1114.36242700	        -17.59779400	          0.84259300	          0.00000000	         -0.37040200	          0.00000000	          0.00000000	          0.00000000	         -0.00000000	          8.30860400	         -0.00000000	
1.054	          0.00000000	          0.00000000	          0.00000000	          0.00000000	          0.00000000	          0.00000000	        138.84812900	       1097.60888700	        -18.49607800	          0.84037200	          0.00000000	         -0.37028600	          0.00000000	          0.00000000	          0.00000000	         -0.00000000	          8.46232700	         -0.00000000	
1.055	          0.00000000	          0.00000000	          0.00000000	          0.00000000	          0.00000000	          0.00000000	        140.70021100	       1080.80896000	        -19.36261400	          0.83815600	          0.00000000	         -0.37017000	          0.00000000	          0.00000000	          0.00000000	         -0.00000000	          8.60823300	         -0.00000000	
1.056	          0.00000000	          0.00000000	          0.00000000	          0.00000000	          0.00000000	          0.00000000	        142.43695100	       1063.97180200	        -20.19381100	          0.83594500	          0.00000000	         -0.37005300	          0.00000000	          0.00000000	          0.00000000	         -0.00000000	          8.74594100	         -0.00000000	
1.057	          0.00000000	          0.00000000	          0.00000000	          0.00000000	          0.00000000	          0.00000000	        144.05896000	       1047.10559100	        -20.98623300	          0.83373900	          0.00000000	         -0.36993600	          0.00000000	          0.00000000	          0.00000000	         -0.00000000	          8.87508800	         -0.00000000	
1.058	          0.00000000	          0.00000000	          0.00000000	          0.00000000	          0.00000000	          0.00000000	        145.56642200	       1030.21826200	        -21.73663700	          0.83153900	          0.00000000	         -0.36981800	          0.00000000	          0.00000000	          0.00000000	         -0.00000000	          8.99533800	         -0.00000000	
